<?xml version="1.0" standalone="no"?>
<!DOCTYPE svg PUBLIC "-//W3C//DTD SVG 20010904//EN"
 "http://www.w3.org/TR/2001/REC-SVG-20010904/DTD/svg10.dtd">
<svg version="1.0" xmlns="http://www.w3.org/2000/svg"
 width="64.000000pt" height="64.000000pt" viewBox="0 0 64.000000 64.000000"
 preserveAspectRatio="xMidYMid meet">

<g transform="translate(0.000000,64.000000) scale(0.100000,-0.100000)"
fill="#000000" stroke="none">
<path d="M44 628 c-40 -19 -44 -47 -44 -317 0 -240 1 -261 19 -282 19 -24 20
-24 282 -27 281 -3 308 0 328 44 7 17 11 112 11 280 l0 256 -29 29 -29 29
-259 -1 c-156 0 -266 -4 -279 -11z m376 -118 c0 -35 -3 -40 -23 -40 -29 0 -47
-18 -47 -47 0 -20 5 -23 35 -23 34 0 35 -1 35 -40 0 -39 -1 -40 -35 -40 l-35
0 0 -116 0 -115 -42 3 -43 3 -3 113 c-2 104 -4 112 -22 112 -17 0 -20 7 -20
40 0 32 4 40 19 40 15 0 19 10 23 50 8 76 31 94 126 99 31 1 32 0 32 -39z"/>
</g>
</svg>
