<?xml version="1.0" standalone="no"?>
<!DOCTYPE svg PUBLIC "-//W3C//DTD SVG 20010904//EN"
 "http://www.w3.org/TR/2001/REC-SVG-20010904/DTD/svg10.dtd">
<svg version="1.0" xmlns="http://www.w3.org/2000/svg"
 width="371.000000pt" height="393.000000pt" viewBox="0 0 371.000000 393.000000"
 preserveAspectRatio="xMidYMid meet">

<g transform="translate(0.000000,393.000000) scale(0.100000,-0.100000)"
fill="#000000" stroke="none">
<path d="M1603 3649 c-104 -10 -304 -58 -408 -99 -458 -177 -820 -555 -974
-1015 -55 -164 -72 -273 -78 -475 -4 -159 -2 -203 16 -312 62 -360 223 -665
489 -919 501 -480 1241 -593 1862 -285 452 225 773 637 880 1134 21 97 46 359
35 370 -10 10 -23 -18 -30 -67 -9 -62 -66 -232 -105 -317 -85 -184 -276 -411
-448 -534 -93 -66 -238 -143 -339 -180 -75 -27 -85 -22 -110 56 -21 67 -12
101 52 198 40 62 45 75 45 127 0 33 4 59 10 59 5 0 28 -10 50 -21 23 -12 43
-19 46 -16 3 2 -9 24 -25 48 -17 24 -34 59 -37 77 -6 27 -4 32 14 32 11 0 36
-7 57 -16 55 -23 72 -12 44 28 -14 19 -24 51 -27 85 l-4 53 45 -6 c51 -7 117
2 117 16 0 5 -15 16 -33 24 -38 16 -77 60 -77 87 0 17 8 19 65 19 72 0 140 24
114 41 -8 5 -26 9 -40 9 -50 0 -107 92 -92 150 4 15 17 21 54 26 27 4 56 12
66 19 15 11 12 15 -25 34 -46 23 -82 72 -82 108 0 17 11 28 46 44 48 23 45 39
-9 39 -38 0 -77 41 -77 80 0 26 16 47 91 123 99 100 126 143 136 212 8 60 -12
91 -67 100 -24 4 -40 12 -40 20 0 8 9 85 21 172 36 275 7 373 -111 373 -58 0
-83 -16 -238 -148 -240 -206 -286 -232 -420 -232 -232 0 -293 -33 -607 -323
-64 -59 -142 -125 -173 -146 -141 -95 -361 -180 -469 -181 -25 0 -33 -4 -33
-18 0 -51 128 -190 212 -229 24 -11 67 -24 96 -28 73 -10 69 -29 -25 -123
-103 -102 -170 -135 -272 -136 l-74 -1 -18 53 c-45 133 -63 251 -62 427 0 146
3 186 26 286 59 262 171 475 352 667 190 202 417 334 685 397 63 16 124 31
135 36 26 10 -122 9 -232 -2z"/>
</g>
<!-- Original by AGSdesigns -->
</svg>
