<?xml version="1.0" standalone="no"?>
<!DOCTYPE svg PUBLIC "-//W3C//DTD SVG 20010904//EN"
 "http://www.w3.org/TR/2001/REC-SVG-20010904/DTD/svg10.dtd">
<svg version="1.0" xmlns="http://www.w3.org/2000/svg"
 width="64.000000pt" height="64.000000pt" viewBox="0 0 64.000000 64.000000"
 preserveAspectRatio="xMidYMid meet">

<g transform="translate(0.000000,64.000000) scale(0.100000,-0.100000)"
fill="#000000" stroke="none">
<path d="M44 628 c-40 -19 -44 -47 -44 -317 0 -240 1 -261 19 -282 19 -24 20
-24 282 -27 281 -3 308 0 328 44 7 17 11 112 11 280 l0 256 -29 29 -29 29
-259 -1 c-156 0 -266 -4 -279 -11z m316 -113 c-7 -8 -19 -15 -26 -15 -12 0
-12 -5 1 -30 22 -42 19 -53 -20 -100 -19 -23 -35 -44 -35 -45 0 -2 20 -24 45
-48 38 -38 45 -51 45 -84 0 -48 -27 -76 -88 -93 -90 -23 -182 17 -182 80 0 46
38 81 93 87 45 5 46 7 40 32 -8 37 -12 41 -34 41 -33 0 -69 44 -69 85 0 79 39
104 159 105 73 0 82 -2 71 -15z m120 -20 c0 -21 5 -25 30 -25 39 0 41 -27 3
-32 -22 -2 -29 -9 -31 -30 -5 -39 -32 -37 -32 2 0 27 -3 30 -31 30 -38 0 -35
24 4 28 21 3 27 9 27 28 0 15 6 24 15 24 9 0 15 -9 15 -25z"/>
<path d="M192 497 c-45 -54 6 -162 68 -142 45 14 49 78 9 130 -22 27 -60 33
-77 12z"/>
<path d="M200 253 c-51 -19 -66 -77 -30 -113 39 -39 145 -20 157 27 15 63 -57
112 -127 86z"/>
</g>
</svg>
