<?xml version="1.0" standalone="no"?>
<!DOCTYPE svg PUBLIC "-//W3C//DTD SVG 20010904//EN"
 "http://www.w3.org/TR/2001/REC-SVG-20010904/DTD/svg10.dtd">
<svg version="1.0" xmlns="http://www.w3.org/2000/svg"
 width="64.000000pt" height="64.000000pt" viewBox="0 0 64.000000 64.000000"
 preserveAspectRatio="xMidYMid meet">

<g transform="translate(0.000000,64.000000) scale(0.100000,-0.100000)"
fill="#000000" stroke="none">
<path d="M29 611 l-29 -29 0 -262 0 -262 29 -29 29 -29 256 0 c166 0 264 4
279 11 43 20 47 45 47 315 l0 256 -29 29 -29 29 -262 0 -262 0 -29 -29z m463
-144 c35 -1 37 -2 21 -19 -15 -17 -15 -18 2 -18 16 0 17 -2 3 -17 -8 -10 -18
-38 -22 -61 -14 -90 -88 -180 -165 -202 -48 -13 -120 -13 -160 1 -38 14 -40
29 -3 29 15 1 38 7 51 14 l25 14 -31 15 c-35 18 -51 47 -27 47 10 0 5 9 -15
26 -34 28 -44 68 -14 57 16 -6 16 -5 0 17 -18 25 -24 90 -9 90 5 0 17 -10 28
-21 24 -28 91 -58 127 -59 22 0 27 4 27 25 0 14 12 37 26 51 21 22 31 25 62
19 20 -4 54 -7 74 -8z"/>
</g>
</svg>
